<?xml version="1.0" standalone="no"?>
<!DOCTYPE svg PUBLIC "-//W3C//DTD SVG 20010904//EN"
 "http://www.w3.org/TR/2001/REC-SVG-20010904/DTD/svg10.dtd">
<svg version="1.0" xmlns="http://www.w3.org/2000/svg"
 width="256.000000pt" height="256.000000pt" viewBox="0 0 256.000000 256.000000"
 preserveAspectRatio="xMidYMid meet">
<metadata>
Created by potrace 1.11, written by Peter Selinger 2001-2013
</metadata>
<g transform="translate(0.000000,256.000000) scale(0.100000,-0.100000)"
fill="#000000" stroke="none">
<path d="M1740 2089 c-63 -19 -120 -68 -146 -126 l-14 -33 -790 0 -790 0 0
-75 0 -75 793 0 792 0 13 -29 c34 -77 117 -125 212 -125 96 0 186 53 212 127
l10 27 264 0 264 0 0 75 0 75 -261 0 -260 0 -14 33 c-17 41 -67 91 -113 113
-43 20 -125 26 -172 13z"/>
<path d="M825 1507 c-53 -21 -89 -48 -117 -87 -16 -21 -28 -43 -28 -49 0 -8
-101 -11 -340 -11 l-340 0 0 -75 0 -75 335 0 334 0 16 -35 c20 -41 55 -77 103
-107 48 -29 159 -31 214 -4 48 23 96 72 114 114 l14 32 715 0 715 0 0 75 0 75
-713 0 -714 0 -33 49 c-49 71 -119 109 -200 109 -25 0 -59 -5 -75 -11z"/>
<path d="M1425 928 c-33 -12 -92 -53 -113 -78 -7 -8 -19 -30 -27 -47 l-14 -33
-635 0 -636 0 0 -75 0 -75 640 0 c426 0 640 -3 640 -10 0 -23 47 -80 90 -109
114 -77 288 -31 342 90 l13 29 417 0 418 0 0 75 0 75 -414 0 -414 0 -22 42
c-40 76 -110 120 -200 125 -30 1 -68 -2 -85 -9z"/>
</g>
</svg>
